mastitorrents.com
  
http://mastitorrents.com/forums/index.php
  
http://thepiratebay.se/user/HDvideos/0/7

Cameraman Gangatho Rambabu (2012) - Telugu - CAM - Untouched

General
Complete name : D:CGTR (2012) CAmVTS_01_1.VOB
Format : MPEG-PS
File size : 864 MiB
Duration : 2h 16mn
Overall bit rate mode : Variable
Overall bit rate : 883 Kbps

Video
ID : 224 (0xE0)
Format : MPEG Video
Format version : Version 2
Format profile : Main@Main
Format settings, BVOP : Yes
Format settings, Matrix : Default
Duration : 2h 16mn
Bit rate mode : Variable
Bit rate : 609 Kbps
Maximum bit rate : 9 544 Kbps
Width : 720 pixels
Height : 480 pixels
Display aspect ratio : 16:9
Frame rate : 29.970 fps
Standard : NTSC
Color space : YUV
Chroma subsampling : 4:2:0
Bit depth : 8 bits
Scan type : Progressive
Compression mode : Lossy
Bits/(Pixel*Frame) : 0.059
Stream size : 596 MiB (69%)

Audio
ID : 189 (0xBD)-128 (0x80)
Format : AC-3
Format/Info : Audio Coding 3
Mode extension : CM (complete main)
Format settings, Endianness : Big
Muxing mode : DVD-Video
Duration : 2h 16mn
Bit rate mode : Constant
Bit rate : 256 Kbps
Channel(s) : 2 channels
Channel positions : Front: L R
Sampling rate : 48.0 KHz
Bit depth : 16 bits
Compression mode : Lossy
Delay relative to video : 40ms
Stream size : 251 MiB (29%)